<?xml version="1.0" encoding="UTF-8" standalone="no"?>
<!-- Generator: Adobe Illustrator 24.0.0, SVG Export Plug-In . SVG Version: 6.00 Build 0)  -->

<svg
   version="1.1"
   id="Ebene_1"
   x="0px"
   y="0px"
   viewBox="0 0 160.7 91.4"
   style="enable-background:new 0 0 160.7 91.4;"
   xml:space="preserve"
   sodipodi:docname="Logo_white.svg"
   inkscape:version="1.1.2 (b8e25be833, 2022-02-05)"
   xmlns:inkscape="http://www.inkscape.org/namespaces/inkscape"
   xmlns:sodipodi="http://sodipodi.sourceforge.net/DTD/sodipodi-0.dtd"
   xmlns="http://www.w3.org/2000/svg"
   xmlns:svg="http://www.w3.org/2000/svg"
   xmlns:rdf="http://www.w3.org/1999/02/22-rdf-syntax-ns#"
   xmlns:cc="http://creativecommons.org/ns#"
   xmlns:dc="http://purl.org/dc/elements/1.1/"><defs
   id="defs181" /><sodipodi:namedview
   id="namedview179"
   pagecolor="#505050"
   bordercolor="#eeeeee"
   borderopacity="1"
   inkscape:pageshadow="0"
   inkscape:pageopacity="0"
   inkscape:pagecheckerboard="0"
   showgrid="false"
   inkscape:zoom="3.2570235"
   inkscape:cx="76.143141"
   inkscape:cy="73.072853"
   inkscape:window-width="1920"
   inkscape:window-height="1046"
   inkscape:window-x="-11"
   inkscape:window-y="-11"
   inkscape:window-maximized="1"
   inkscape:current-layer="Ebene_1" />
<style
   type="text/css"
   id="style2">
	.st0{fill:#588644;}
	.st1{fill:#045291;}
	.st2{opacity:0.6;fill:url(#SVGID_1_);enable-background:new    ;}
	.st3{opacity:0.6;fill:url(#SVGID_2_);enable-background:new    ;}
	.st4{fill:#D4D3D3;}
	.st5{fill:#7D9A63;}
</style>
<title
   id="title4">Zeichenfläche 1 Kopie 2</title>
<g
   id="g176"
   style="fill:#ffffff;fill-opacity:1">
	<g
   id="g174"
   style="fill:#ffffff;fill-opacity:1">
		<path
   class="st0"
   d="M 0,91.1 V 69.4 h 4.1 l 3.1,15.9 2.9,-15.9 h 4.1 V 91.1 H 11.3 V 83 L 11.4,75.6 8.5,91 H 5.9 L 2.9,75.6 3,83 v 8.1 z"
   id="path6"
   style="fill:#ffffff;fill-opacity:1" />
		<path
   class="st0"
   d="M 16.5,91.1 19.6,69.4 H 24 l 3.3,21.7 h -3.1 l -0.5,-3.9 h -3.5 l -0.5,3.9 z m 6.8,-6.5 -1.5,-10.9 v 0 l -1.3,10.9 z"
   id="path8"
   style="fill:#ffffff;fill-opacity:1" />
		<path
   class="st0"
   d="M 30.4,91.1 V 72.3 h -2.5 v -2.9 h 8.3 v 2.9 h -2.4 v 18.9 z"
   id="path10"
   style="fill:#ffffff;fill-opacity:1" />
		<path
   class="st0"
   d="M 38,91.1 V 69.4 h 7.3 v 2.8 h -4 v 6.3 h 3.8 v 2.8 h -3.8 v 6.9 h 4.1 V 91 Z"
   id="path12"
   style="fill:#ffffff;fill-opacity:1" />
		<path
   class="st0"
   d="M 52.4,80.9 H 51.3 V 91.1 H 48 V 69.4 h 5.5 c 0.9,-0.1 1.8,0.2 2.5,0.7 0.6,0.5 1,1.2 1.1,1.9 0.2,1.1 0.3,2.1 0.3,3.2 0,1 -0.1,2 -0.4,3 -0.3,0.7 -0.8,1.2 -1.6,1.4 0.8,0.2 1.4,0.7 1.6,1.5 0.4,1.8 0.5,3.7 0.4,5.5 -0.1,1.5 0,3 0.1,4.5 H 54.2 C 54.1,90.9 54.1,88.3 54.1,83.3 54.2,82.6 54,82 53.8,81.4 53.5,81 52.9,80.8 52.4,80.9 Z m -1,-2.6 h 1.3 c 0.3,0 0.7,-0.1 0.9,-0.3 0.2,-0.3 0.4,-0.6 0.4,-1 0.1,-0.7 0.1,-1.4 0.1,-2.1 v -0.1 c 0.1,-0.8 0,-1.6 -0.3,-2.3 -0.2,-0.4 -0.7,-0.6 -1.4,-0.6 h -1.1 v 6.4 z"
   id="path14"
   style="fill:#ffffff;fill-opacity:1" />
		<path
   class="st0"
   d="M 60.6,91.1 V 69.4 H 64 v 21.7 z"
   id="path16"
   style="fill:#ffffff;fill-opacity:1" />
		<path
   class="st0"
   d="m 66.3,91.1 3.1,-21.7 h 4.4 l 3.3,21.7 H 74 L 73.5,87.2 H 70 l -0.5,3.9 z m 6.8,-6.5 -1.4,-10.9 h -0.1 l -1.3,10.9 z"
   id="path18"
   style="fill:#ffffff;fill-opacity:1" />
		<path
   class="st0"
   d="M 79.4,91.1 V 69.4 h 3.3 v 18.9 h 4.2 v 2.8 z"
   id="path20"
   style="fill:#ffffff;fill-opacity:1" />
		<g
   id="g36"
   style="fill:#ffffff;fill-opacity:1">
			<path
   class="st1"
   d="M 89.8,91.2 V 69 h 5 c 1.3,-0.1 2.7,0.4 3.5,1.4 0.8,1.3 1.2,2.7 1.1,4.2 v 10 c 0.1,1.7 -0.3,3.4 -1.1,4.9 -0.9,1.1 -2.3,1.7 -3.7,1.6 z m 3.3,-2.7 h 1.1 c 0.5,0 1,-0.2 1.4,-0.6 0.3,-0.7 0.5,-1.4 0.4,-2.2 V 74.8 C 96.1,74 95.9,73.1 95.6,72.4 95.3,71.9 94.7,71.6 94.2,71.7 h -1 z"
   id="path22"
   style="fill:#ffffff;fill-opacity:1" />
			<path
   class="st1"
   d="M 103.4,91.2 V 69 h 3.4 v 22.1 h -3.4 z"
   id="path24"
   style="fill:#ffffff;fill-opacity:1" />
			<path
   class="st1"
   d="m 115.1,91.4 c -1.3,0 -2.5,-0.6 -3.3,-1.6 -0.9,-1.5 -1.3,-3.3 -1.2,-5.1 v -9.6 c -0.1,-1.6 0.3,-3.3 1.2,-4.7 0.9,-1.1 2.4,-1.7 3.8,-1.6 2.2,0 3.6,0.8 4.1,2.4 0.4,1.3 0.6,2.6 0.5,4 v 1.6 h -3.1 v -2.3 c 0,-0.7 -0.1,-1.5 -0.3,-2.1 -0.2,-0.4 -0.7,-0.7 -1.2,-0.6 -0.5,0 -1,0.3 -1.2,0.7 -0.3,0.8 -0.4,1.7 -0.4,2.6 v 9.6 c 0,1 0.1,2 0.3,3 0.2,0.5 0.7,0.9 1.3,0.8 0.6,0 1.1,-0.4 1.3,-0.9 0.3,-1 0.5,-2 0.4,-3.1 v -3 h -1.7 v -2.4 h 4.7 v 12.1 h -1.5 L 118.3,89 c -0.2,0.7 -0.6,1.3 -1.2,1.8 -0.6,0.4 -1.3,0.6 -2,0.6 z"
   id="path26"
   style="fill:#ffffff;fill-opacity:1" />
			<path
   class="st1"
   d="M 124.5,91.2 V 69 h 3.4 v 22.1 h -3.4 z"
   id="path28"
   style="fill:#ffffff;fill-opacity:1" />
			<path
   class="st1"
   d="M 133.1,91.2 V 71.9 h -2.6 V 69 h 8.4 v 2.9 h -2.5 v 19.2 z"
   id="path30"
   style="fill:#ffffff;fill-opacity:1" />
			<path
   class="st1"
   d="M 139.8,91.2 143,69.1 h 4.4 l 3.4,22.1 h -3.1 l -0.5,-4 h -3.6 l -0.5,4 z m 6.9,-6.7 -1.5,-11.1 h -0.1 l -1.4,11.1 z"
   id="path32"
   style="fill:#ffffff;fill-opacity:1" />
			<path
   class="st1"
   d="M 153,91.2 V 69 h 3.4 v 19.2 h 4.2 v 2.9 H 153 Z"
   id="path34"
   style="fill:#ffffff;fill-opacity:1" />
		</g>
		<rect
   x="22.6"
   y="15.2"
   class="st1"
   width="5.3000002"
   height="5.3000002"
   id="rect38"
   style="fill:#ffffff;fill-opacity:1" />
		<rect
   x="14.5"
   y="30.6"
   class="st1"
   width="5"
   height="5"
   id="rect40"
   style="fill:#ffffff;fill-opacity:1" />
		<rect
   x="27.1"
   y="31.4"
   class="st1"
   width="3.9000001"
   height="3.9000001"
   id="rect42"
   style="fill:#ffffff;fill-opacity:1" />
		<rect
   x="40.5"
   y="26.6"
   class="st1"
   width="3.0999999"
   height="3.0999999"
   id="rect44"
   style="fill:#ffffff;fill-opacity:1" />
		<rect
   x="37.200001"
   y="38.099998"
   class="st1"
   width="2.8"
   height="2.8"
   id="rect46"
   style="fill:#ffffff;fill-opacity:1" />
		<rect
   x="37.700001"
   y="47.599998"
   class="st1"
   width="3.0999999"
   height="3.0999999"
   id="rect48"
   style="fill:#ffffff;fill-opacity:1" />
		<rect
   x="36.900002"
   y="8.3999996"
   class="st1"
   width="3.0999999"
   height="3.0999999"
   id="rect50"
   style="fill:#ffffff;fill-opacity:1" />
		<rect
   x="31.299999"
   y="23.6"
   class="st1"
   width="4.1999998"
   height="4.1999998"
   id="rect52"
   style="fill:#ffffff;fill-opacity:1" />
		<rect
   x="20.4"
   y="38.099998"
   class="st1"
   width="4.1999998"
   height="4.1999998"
   id="rect54"
   style="fill:#ffffff;fill-opacity:1" />
		
			<linearGradient
   id="SVGID_1_"
   gradientUnits="userSpaceOnUse"
   x1="98.760002"
   y1="72.319702"
   x2="135.12"
   y2="72.319702"
   gradientTransform="matrix(1,0,0,-1,0,92.0556)">
			<stop
   offset="0"
   style="stop-color:#588644;stop-opacity:0"
   id="stop56" />
			<stop
   offset="0.61"
   style="stop-color:#588644"
   id="stop58" />
		</linearGradient>
		<path
   class="st2"
   d="m 116.4,15.7 c 0,0 -9,9 -17.7,8.3 v 0 l 1.3,2.7 c 8,1.6 21.5,1.1 21.5,1.1 L 135.1,26.2 129,11.6 Z"
   id="path61"
   style="fill:#ffffff;fill-opacity:1" />
		
			<linearGradient
   id="SVGID_2_"
   gradientUnits="userSpaceOnUse"
   x1="98.760002"
   y1="76.743103"
   x2="134.83"
   y2="76.743103"
   gradientTransform="matrix(1,0,0,-1,0,92.0556)">
			<stop
   offset="0"
   style="stop-color:#7D9A63;stop-opacity:0"
   id="stop63" />
			<stop
   offset="0.63"
   style="stop-color:#7D9A63"
   id="stop65" />
		</linearGradient>
		<path
   class="st3"
   d="m 129.1,11.6 5.8,-5 -13.4,4.4 c 0,0 -14.1,11.7 -20.3,11.8 L 98.8,24 v 0 c 9.1,0.7 17.7,-8.3 17.7,-8.3 z"
   id="path68"
   style="fill:#ffffff;fill-opacity:1" />
		<polygon
   class="st0"
   points="129.1,11.6 116.4,15.7 121.5,27.8 135.1,26.2 "
   id="polygon70"
   style="fill:#ffffff;fill-opacity:1" />
		<polygon
   class="st0"
   points="129.1,11.6 135.1,26.2 139.9,19.5 134.8,6.6 "
   id="polygon72"
   style="fill:#ffffff;fill-opacity:1" />
		<polygon
   class="st4"
   points="129.1,11.6 135.1,26.2 139.9,19.5 134.8,6.6 "
   id="polygon74"
   style="fill:#ffffff;fill-opacity:1" />
		<polygon
   class="st5"
   points="116.4,15.7 129.1,11.6 134.8,6.6 121.5,11 "
   id="polygon76"
   style="fill:#ffffff;fill-opacity:1" />
		<g
   id="g172"
   style="fill:#ffffff;fill-opacity:1">
			<polygon
   class="st1"
   points="65.4,21.5 64.9,12.8 56.5,12 57.2,20.6 "
   id="polygon78"
   style="fill:#ffffff;fill-opacity:1" />
			<polygon
   class="st1"
   points="76.7,13.9 68.1,13.2 68.7,21.8 77.1,22.7 "
   id="polygon80"
   style="fill:#ffffff;fill-opacity:1" />
			<polygon
   class="st1"
   points="70.5,54.7 78.6,55.7 78.2,47.8 70.1,46.9 "
   id="polygon82"
   style="fill:#ffffff;fill-opacity:1" />
			<polygon
   class="st1"
   points="81.3,45.4 89.6,46.4 89.4,38.2 80.9,37.3 "
   id="polygon84"
   style="fill:#ffffff;fill-opacity:1" />
			<polygon
   class="st1"
   points="69.9,44 78.1,45 77.7,36.8 69.5,35.9 "
   id="polygon86"
   style="fill:#ffffff;fill-opacity:1" />
			<polygon
   class="st1"
   points="89,26.8 80.4,26 80.8,34.4 89.3,35.3 "
   id="polygon88"
   style="fill:#ffffff;fill-opacity:1" />
			<polygon
   class="st1"
   points="81.8,56.2 90,57.2 89.7,49.2 81.4,48.3 "
   id="polygon90"
   style="fill:#ffffff;fill-opacity:1" />
			<polygon
   class="st1"
   points="77.2,25.5 68.8,24.7 69.3,33.1 77.6,34 "
   id="polygon92"
   style="fill:#ffffff;fill-opacity:1" />
			<polygon
   class="st1"
   points="59.5,53.2 67.3,54.2 66.9,46.4 58.9,45.5 "
   id="polygon94"
   style="fill:#ffffff;fill-opacity:1" />
			<polygon
   class="st1"
   points="65.6,24.3 57.4,23.5 58,31.8 66.1,32.7 "
   id="polygon96"
   style="fill:#ffffff;fill-opacity:1" />
			<polygon
   class="st1"
   points="45.2,11.1 45.9,19.6 54,20.4 53.3,11.9 "
   id="polygon98"
   style="fill:#ffffff;fill-opacity:1" />
			<polygon
   class="st1"
   points="48.7,52 56.3,52.9 55.8,45.2 48,44.3 "
   id="polygon100"
   style="fill:#ffffff;fill-opacity:1" />
			<polygon
   class="st1"
   points="58.8,42.7 66.7,43.6 66.2,35.5 58.2,34.7 "
   id="polygon102"
   style="fill:#ffffff;fill-opacity:1" />
			<polygon
   class="st1"
   points="46.1,22.5 46.9,30.7 54.8,31.6 54.2,23.3 "
   id="polygon104"
   style="fill:#ffffff;fill-opacity:1" />
			<polygon
   class="st1"
   points="88.7,15.1 79.9,14.3 80.3,23.1 89,23.9 "
   id="polygon106"
   style="fill:#ffffff;fill-opacity:1" />
			<polygon
   class="st1"
   points="47.1,33.6 47.8,41.5 55.6,42.4 55,34.4 "
   id="polygon108"
   style="fill:#ffffff;fill-opacity:1" />
			<polygon
   class="st1"
   points="111.3,38.2 112.9,36.7 112.9,31.8 111.3,33.1 "
   id="polygon110"
   style="fill:#ffffff;fill-opacity:1" />
			<polygon
   class="st1"
   points="112.8,2.5 111.1,3.6 111.1,9.7 112.9,8.5 "
   id="polygon112"
   style="fill:#ffffff;fill-opacity:1" />
			<polygon
   class="st1"
   points="105.6,44.2 108.4,41.5 108.4,35.1 105.5,37.6 "
   id="polygon114"
   style="fill:#ffffff;fill-opacity:1" />
			<polygon
   class="st1"
   points="99.6,50.1 103.2,46.7 103.1,39.5 99.4,42.7 "
   id="polygon116"
   style="fill:#ffffff;fill-opacity:1" />
			<polygon
   class="st1"
   points="92.9,56.5 97.1,52.5 96.9,44.9 92.6,48.6 "
   id="polygon118"
   style="fill:#ffffff;fill-opacity:1" />
			<g
   id="g126"
   style="fill:#ffffff;fill-opacity:1">
				<path
   class="st1"
   d="m 112.8,12.5 -1.7,1.2 v 3.1 l 1.7,-1.2 z"
   id="path120"
   style="fill:#ffffff;fill-opacity:1" />
				<path
   class="st1"
   d="m 105.5,34.5 2.9,-2.5 v -2.8 c -1,-0.1 -2,-0.1 -3,-0.2 z"
   id="path122"
   style="fill:#ffffff;fill-opacity:1" />
				<path
   class="st1"
   d="m 108.3,15.1 -3,2.1 v 3.2 c 1,-0.5 2,-1.1 3,-1.8 z"
   id="path124"
   style="fill:#ffffff;fill-opacity:1" />
			</g>
			<polygon
   class="st1"
   points="108.2,4.8 105.1,6.6 105.2,14.3 108.3,12.2 "
   id="polygon128"
   style="fill:#ffffff;fill-opacity:1" />
			<polygon
   class="st1"
   points="102.9,29.3 99.2,32.2 99.4,40 103,36.8 "
   id="polygon130"
   style="fill:#ffffff;fill-opacity:1" />
			<polygon
   class="st1"
   points="98.9,18.8 102.8,16.2 102.7,8 98.8,10.3 "
   id="polygon132"
   style="fill:#ffffff;fill-opacity:1" />
			<polygon
   class="st1"
   points="96.7,34.2 92.3,37.6 92.6,45.9 96.9,42.1 "
   id="polygon134"
   style="fill:#ffffff;fill-opacity:1" />
			<polygon
   class="st1"
   points="96.2,11.9 91.7,14.6 91.9,23.7 96.4,20.6 "
   id="polygon136"
   style="fill:#ffffff;fill-opacity:1" />
			<polygon
   class="st1"
   points="87.9,0.2 81.4,0.1 79.3,0.9 85.9,1.1 "
   id="polygon138"
   style="fill:#ffffff;fill-opacity:1" />
			<polygon
   class="st1"
   points="111.2,0.5 102.9,0.4 101,1.4 109.2,1.7 "
   id="polygon140"
   style="fill:#ffffff;fill-opacity:1" />
			<polygon
   class="st1"
   points="82.9,2.5 75.9,2.3 73.1,3.4 80.2,3.7 "
   id="polygon142"
   style="fill:#ffffff;fill-opacity:1" />
			<polygon
   class="st1"
   points="77.3,5.1 69.9,4.7 66.1,6.2 73.6,6.7 "
   id="polygon144"
   style="fill:#ffffff;fill-opacity:1" />
			<polygon
   class="st1"
   points="70.6,8.1 62.7,7.6 57.8,9.6 65.8,10.3 "
   id="polygon146"
   style="fill:#ffffff;fill-opacity:1" />
			<polygon
   class="st1"
   points="99.4,0.1 91.9,0.1 89.5,1.2 97,1.4 "
   id="polygon148"
   style="fill:#ffffff;fill-opacity:1" />
			<polygon
   class="st1"
   points="83.5,4 91.3,4.3 94.2,2.8 86.5,2.6 "
   id="polygon150"
   style="fill:#ffffff;fill-opacity:1" />
			<polygon
   class="st1"
   points="76.9,7.1 85,7.6 88.6,5.7 80.6,5.4 "
   id="polygon152"
   style="fill:#ffffff;fill-opacity:1" />
			<polygon
   class="st1"
   points="82.2,9.1 73.9,8.5 69.4,10.7 77.7,11.5 "
   id="polygon154"
   style="fill:#ffffff;fill-opacity:1" />
			<polygon
   class="st1"
   points="94.1,4.8 103.6,5.3 106.9,3.3 97.4,3 "
   id="polygon156"
   style="fill:#ffffff;fill-opacity:1" />
			<polygon
   class="st1"
   points="87.8,8.2 97.3,8.9 101.1,6.7 91.5,6.2 "
   id="polygon158"
   style="fill:#ffffff;fill-opacity:1" />
			<polygon
   class="st1"
   points="80.8,12 90.5,12.9 94.8,10.4 85,9.7 "
   id="polygon160"
   style="fill:#ffffff;fill-opacity:1" />
			<polygon
   class="st1"
   points="70.4,0.6 76.1,0.7 77.8,0 72.2,0 "
   id="polygon162"
   style="fill:#ffffff;fill-opacity:1" />
			<polygon
   class="st1"
   points="63.8,2.8 70,3 72.6,2 66.5,1.9 "
   id="polygon164"
   style="fill:#ffffff;fill-opacity:1" />
			<polygon
   class="st1"
   points="56.2,5.5 62.9,5.8 66.6,4.4 60,4.2 "
   id="polygon166"
   style="fill:#ffffff;fill-opacity:1" />
			<polygon
   class="st1"
   points="46.7,8.8 53.9,9.4 59.1,7.4 52,7 "
   id="polygon168"
   style="fill:#ffffff;fill-opacity:1" />
			<polygon
   class="st1"
   points="96.5,23.2 92,26.3 92.3,34.9 96.6,31.5 "
   id="polygon170"
   style="fill:#ffffff;fill-opacity:1" />
		</g>
	</g>
</g>
<metadata
   id="metadata998"><rdf:RDF><cc:Work
       rdf:about=""><dc:title>Zeichenfläche 1 Kopie 2</dc:title></cc:Work></rdf:RDF></metadata></svg>
